<?xml version="1.0" encoding="utf-8"?>
<!-- Generator: Adobe Illustrator 16.0.3, SVG Export Plug-In . SVG Version: 6.00 Build 0)  -->
<!DOCTYPE svg PUBLIC "-//W3C//DTD SVG 1.1//EN" "http://www.w3.org/Graphics/SVG/1.1/DTD/svg11.dtd">
<svg version="1.1" id="圖層_1" xmlns="http://www.w3.org/2000/svg" xmlns:xlink="http://www.w3.org/1999/xlink" x="0px" y="0px"
	 width="190px" height="18px" viewBox="11.5 0 190 18" enable-background="new 11.5 0 190 18" xml:space="preserve">
<g>
	<path fill="#FFFFFF" d="M11.5,1.35h4.135c3.172,0,5.36,1.027,5.36,3.85c0,2.102-1.225,3.15-3.15,3.633v0.042
		c2.079,0.177,3.544,1.532,3.544,3.675c0,3.281-2.713,4.069-5.819,4.069H11.5V1.35z M13.688,14.826h1.641
		c1.969,0,3.741-0.416,3.741-2.472c0-2.363-2.078-2.691-3.96-2.691h-1.422V14.826z M13.688,7.87h1.203
		c2.123,0,3.917-0.197,3.917-2.45c0-1.814-1.553-2.275-2.822-2.275h-2.297V7.87z"/>
	<path fill="#FFFFFF" d="M30.209,1.35h2.297l6.454,15.269h-2.385l-1.553-3.85h-7.482l-1.554,3.85H23.69L30.209,1.35z M31.281,3.406
		l-3.042,7.57h6.083L31.281,3.406z"/>
	<path fill="#FFFFFF" d="M42.307,1.35h2.974l6.739,12.294h0.043V1.35h2.188v15.269h-2.801L44.538,4.064h-0.043v12.555h-2.188V1.35z"
		/>
	<path fill="#FFFFFF" d="M70.771,4.064c-1.072-0.701-2.231-1.051-4.201-1.051c-3.522,0-5.863,2.56-5.863,5.973
		c0,3.587,2.582,5.972,5.754,5.972c1.509,0,1.903-0.153,2.45-0.264v-4.638h-3.216V8.262h5.403v7.943
		c-0.832,0.283-2.275,0.678-4.66,0.678c-4.835,0-8.051-3.107-8.051-7.962c0-4.705,3.413-7.832,8.073-7.832
		c2.232,0,3.216,0.327,4.485,0.766L70.771,4.064z"/>
	<path fill="#FFFFFF" d="M109.341,1.086c4.639,0,7.353,3.37,7.353,7.898c0,4.637-2.691,7.897-7.353,7.897
		c-4.66,0-7.35-3.26-7.35-7.897C101.991,4.458,104.704,1.086,109.341,1.086z M109.341,14.958c3.522,0,5.032-2.932,5.032-5.972
		c0-3.107-1.662-5.994-5.032-5.973c-3.368-0.021-5.031,2.865-5.031,5.973C104.31,12.026,105.819,14.958,109.341,14.958z"/>
	<path fill="#FFFFFF" d="M121.048,1.35h2.188v13.344h6.388v1.925h-8.575V1.35z"/>
	<path fill="#FFFFFF" d="M144.361,10.299c0,4.287-2.165,6.584-5.929,6.584s-5.929-2.297-5.929-6.584V1.35h2.188v8.663
		c0,2.932,0.919,4.945,3.742,4.945c2.821,0,3.74-2.014,3.74-4.945V1.35h2.188L144.361,10.299L144.361,10.299z"/>
	<path fill="#FFFFFF" d="M149.641,1.35h8.116v1.925h-5.929v4.463h5.666v1.925h-5.666v6.956h-2.188V1.35z"/>
	<path fill="#FFFFFF" d="M169.942,3.647c-1.115-0.437-1.728-0.634-2.865-0.634c-1.225,0-2.67,0.438-2.67,2.035
		c0,2.932,6.564,2.253,6.564,7.284c0,3.261-2.517,4.551-5.578,4.551c-1.073,0-2.123-0.307-3.13-0.635l0.219-2.033
		c0.744,0.306,2.058,0.743,3.173,0.743c1.247,0,2.998-0.7,2.998-2.495c0-3.412-6.563-2.472-6.563-7.218
		c0-2.713,2.144-4.156,4.9-4.156c1.007,0,2.21,0.174,3.26,0.546L169.942,3.647z"/>
	<path fill="#FFFFFF" d="M175.941,1.35h8.555v1.925h-6.366v4.463h5.797v1.925h-5.797v5.031h6.366v1.925h-8.555V1.35L175.941,1.35z"
		/>
	<path fill="#FFFFFF" d="M189.555,1.35h2.976l6.737,12.294h0.044V1.35h2.188v15.269h-2.801l-6.913-12.555h-0.043v12.555h-2.188V1.35
		z"/>
	<path fill="#FFFFFF" d="M92.96,16.396c0,0-1.729-1.731-2.163-2.163c-0.363,0.352-0.721,0.709-1.398,1.387
		c-1.341,1.343-4.109,2.063-6.161,0.012c-2.083-2.082-1.292-4.891-0.011-6.171c0.496-0.496,1.089-1.078,1.398-1.389
		c-0.267-0.287-1.58-1.313-1.58-3.171c0-1.923,1.549-3.812,3.812-3.812c1.655,0,2.584,1.015,2.702,1.132
		c-0.112,0.111-1.364,1.358-1.54,1.534c-0.168-0.176-0.553-0.48-1.162-0.48c-0.715,0-1.633,0.579-1.633,1.634
		c0,0.664,0.44,1.105,0.497,1.162c0.729,0.728,5.069,5.084,5.069,5.084l1.546-1.546l1.538,1.546l-1.546,1.537l2.162,2.163
		L92.96,16.396z M86.163,9.62c0,0-0.646,0.647-1.388,1.389c-0.742,0.741-0.961,2.113,0,3.075c0.961,0.961,2.328,0.747,3.075,0.011
		c0.748-0.737,1.41-1.41,1.41-1.41L86.163,9.62z"/>
</g>
</svg>
